HIERARCHY
ROOT hip
{
  OFFSET 0 0 0
  CHANNELS 6 Xposition Yposition Zposition Zrotation Yrotation Xrotation
  JOINT abdomen
  {
    OFFSET 0 20.6881 -0.73152
    CHANNELS 3 Zrotation Xrotation Yrotation
    JOINT chest
    {
      OFFSET 0 11.7043 -0.48768
      CHANNELS 3 Zrotation Xrotation Yrotation
      JOINT neck
      {
        OFFSET 0 22.1894 -2.19456
        CHANNELS 3 Zrotation Xrotation Yrotation
        JOINT head
        {
          OFFSET -0.24384 7.07133 1.2192
          CHANNELS 3 Zrotation Xrotation Yrotation
          JOINT leftEye
          {
            OFFSET 4.14528 8.04674 8.04672
            CHANNELS 3 Zrotation Xrotation Yrotation
            End Site
            {
              OFFSET 1 0 0
            }
          }
          JOINT rightEye
          {
            OFFSET -3.6576 8.04674 8.04672
            CHANNELS 3 Zrotation Xrotation Yrotation
            End Site
            {
              OFFSET 1 0 0
            }
          }
        }
      }
      JOINT rCollar
      {
        OFFSET -2.68224 19.2634 -4.8768
        CHANNELS 3 Zrotation Xrotation Yrotation
        JOINT rShldr
        {
          OFFSET -8.77824 -1.95073 1.46304
          CHANNELS 3 Zrotation Xrotation Yrotation
          JOINT rForeArm
          {
            OFFSET -28.1742 -1.7115 0.48768
            CHANNELS 3 Zrotation Xrotation Yrotation
            JOINT rHand
            {
              OFFSET -22.5879 0.773209 7.07136
              CHANNELS 3 Zrotation Xrotation Yrotation
              JOINT rThumb1
              {
                OFFSET -1.2192 -0.487915 3.41376
                CHANNELS 3 Zrotation Xrotation Yrotation
                JOINT rThumb2
                {
                  OFFSET -3.37035 -0.52449 3.41376
                  CHANNELS 3 Zrotation Xrotation Yrotation
                  End Site
                  {
                    OFFSET -1.78271 -1.18214 1.43049
                  }
                }
              }
              JOINT rIndex1
              {
                OFFSET -7.75947 0.938293 5.60832
                CHANNELS 3 Zrotation Xrotation Yrotation
                JOINT rIndex2
                {
                  OFFSET -2.54057 -0.884171 1.56538
                  CHANNELS 3 Zrotation Xrotation Yrotation
                  End Site
                  {
                    OFFSET -1.62519 -0.234802 1.16502
                  }
                }
              }
              JOINT rMid1
              {
                OFFSET -8.24714 1.18213 3.41376
                CHANNELS 3 Zrotation Xrotation Yrotation
                JOINT rMid2
                {
                  OFFSET -3.10165 -0.590103 1.0647
                  CHANNELS 3 Zrotation Xrotation Yrotation
                  End Site
                  {
                    OFFSET -2.48547 -0.328903 0.83742
                  }
                }
              }
              JOINT rRing1
              {
                OFFSET -8.82822 0.546677 1.51678
                CHANNELS 3 Zrotation Xrotation Yrotation
                JOINT rRing2
                {
                  OFFSET -2.60934 -0.819778 -0.0198488
                  CHANNELS 3 Zrotation Xrotation Yrotation
                  End Site
                  {
                    OFFSET -2.33842 -0.294052 0.168128
                  }
                }
              }
              JOINT rPinky1
              {
                OFFSET -8.27202 -0.0477905 -0.4584
                CHANNELS 3 Zrotation Xrotation Yrotation
                JOINT rPinky2
                {
                  OFFSET -1.82734 -0.647385 -0.700984
                  CHANNELS 3 Zrotation Xrotation Yrotation
                  End Site
                  {
                    OFFSET -1.69225 -0.51767 -0.607171
                  }
                }
              }
            }
          }
        }
      }
      JOINT lCollar
      {
        OFFSET 2.68224 19.2634 -4.8768
        CHANNELS 3 Zrotation Xrotation Yrotation
        JOINT lShldr
        {
          OFFSET 8.77824 -1.95073 1.46304
          CHANNELS 3 Zrotation Xrotation Yrotation
          JOINT lForeArm
          {
            OFFSET 28.1742 -1.7115 0.48768
            CHANNELS 3 Zrotation Xrotation Yrotation
            JOINT lHand
            {
              OFFSET 22.5879 0.773209 7.07136
              CHANNELS 3 Zrotation Xrotation Yrotation
              JOINT lThumb1
              {
                OFFSET 1.2192 -0.487915 3.41376
                CHANNELS 3 Zrotation Xrotation Yrotation
                JOINT lThumb2
                {
                  OFFSET 3.37035 -0.52449 3.41376
                  CHANNELS 3 Zrotation Xrotation Yrotation
                  End Site
                  {
                    OFFSET 1.78271 -1.18214 1.43049
                  }
                }
              }
              JOINT lIndex1
              {
                OFFSET 7.75947 0.938293 5.60832
                CHANNELS 3 Zrotation Xrotation Yrotation
                JOINT lIndex2
                {
                  OFFSET 2.54057 -0.884171 1.56538
                  CHANNELS 3 Zrotation Xrotation Yrotation
                  End Site
                  {
                    OFFSET 1.62519 -0.234802 1.16502
                  }
                }
              }
              JOINT lMid1
              {
                OFFSET 8.24714 1.18213 3.41376
                CHANNELS 3 Zrotation Xrotation Yrotation
                JOINT lMid2
                {
                  OFFSET 3.10165 -0.590103 1.0647
                  CHANNELS 3 Zrotation Xrotation Yrotation
                  End Site
                  {
                    OFFSET 2.48547 -0.328903 0.83742
                  }
                }
              }
              JOINT lRing1
              {
                OFFSET 8.82822 0.546677 1.51678
                CHANNELS 3 Zrotation Xrotation Yrotation
                JOINT lRing2
                {
                  OFFSET 2.60934 -0.819778 -0.0198488
                  CHANNELS 3 Zrotation Xrotation Yrotation
                  End Site
                  {
                    OFFSET 2.33842 -0.294052 0.168128
                  }
                }
              }
              JOINT lPinky1
              {
                OFFSET 8.27202 -0.0477905 -0.4584
                CHANNELS 3 Zrotation Xrotation Yrotation
                JOINT lPinky2
                {
                  OFFSET 1.82734 -0.647385 -0.700984
                  CHANNELS 3 Zrotation Xrotation Yrotation
                  End Site
                  {
                    OFFSET 1.69225 -0.51767 -0.607171
                  }
                }
              }
            }
          }
        }
      }
    }
  }
  JOINT rButtock
  {
    OFFSET -8.77824 4.35084 1.2192
    CHANNELS 3 Zrotation Xrotation Yrotation
    JOINT rThigh
    {
      OFFSET 0 -1.70687 -2.19456
      CHANNELS 3 Zrotation Xrotation Yrotation
      JOINT rShin
      {
        OFFSET 0 -36.8199 0.73152
        CHANNELS 3 Zrotation Xrotation Yrotation
        JOINT rFoot
        {
          OFFSET 0.73152 -45.1104 -5.12064
          CHANNELS 3 Zrotation Xrotation Yrotation
          End Site
          {
            OFFSET -1.1221 -3.69964 12.103
          }
        }
      }
    }
  }
  JOINT lButtock
  {
    OFFSET 8.77824 4.35084 1.2192
    CHANNELS 3 Zrotation Xrotation Yrotation
    JOINT lThigh
    {
      OFFSET 0 -1.70687 -2.19456
      CHANNELS 3 Zrotation Xrotation Yrotation
      JOINT lShin
      {
        OFFSET 0 -36.8199 0.73152
        CHANNELS 3 Zrotation Xrotation Yrotation
        JOINT lFoot
        {
          OFFSET -0.73152 -45.1104 -5.12064
          CHANNELS 3 Zrotation Xrotation Yrotation
          End Site
          {
            OFFSET 1.1221 -3.69964 12.103
          }
        }
      }
    }
  }
}
MOTION
Frames:	9
Frame Time:	0.00833333
38.4346 83.0696 145.757 0.0 0.0 0.0 -3.29161 -0.00200108 -0.0897122 -0.910493 0.0108273 -0.157566 -4.65916e-14 0.0 -9.93922e-17 -1.38811e-13 3.18055e-15 -6.47603e-16 -0.0 0.0 0.0 -0.0 0.0 0.0 -2.32612e-14 -2.2208e-16 0.0 -4.87119e-13 -4.4975e-15 -2.5842e-15 -8.416e-12 2.36474e-12 3.18055e-14 -9.63359e-11 -3.35732e-12 -5.34333e-13 -2.27237e-10 -2.15602e-12 -1.06867e-12 -3.9244e-10 -3.72761e-12 -1.83995e-12 -2.27231e-10 -2.15483e-12 -1.08139e-12 7.73091 5.47488 0.417314 -2.27237e-10 -2.15622e-12 -1.06549e-12 2.90554 0.965183 0.102902 -2.27232e-10 -2.15562e-12 -1.06708e-12 10.2786 0.731801 0.0259123 -2.27243e-10 -2.15403e-12 -1.05912e-12 2.22167 -0.733487 -0.20892 -2.34548e-14 -2.19944e-16 -2.98177e-16 -4.89596e-13 -4.08751e-15 -4.57205e-15 -8.4151e-12 -2.66908e-12 4.77083e-14 -9.62792e-11 1.70137e-12 -5.47055e-13 -2.27117e-10 -2.10687e-12 -1.06231e-12 -3.92214e-10 -3.63855e-12 -1.8312e-12 -2.27118e-10 -2.10752e-12 -1.05276e-12 -7.73091 5.47488 -0.417314 -2.27116e-10 -2.10742e-12 -1.06867e-12 -2.90554 0.965183 -0.102902 -2.27118e-10 -2.10732e-12 -1.06867e-12 -10.2786 0.731801 -0.0259123 -2.2711e-10 -2.10274e-12 -1.08139e-12 -2.22167 -0.733487 0.20892 -2.03217e-16 0.0 -3.88251e-19 -2.14075 -1.93291 0.018371 -0.00780714 -2.07877 -0.0636297 -0.355904 4.00069 0.117274 2.03217e-16 0.0 3.88251e-19 -2.88101 -9.67715 0.339 -0.0100191 11.9463 -0.261544 0.458812 -2.28003 -0.00598689
31.8122 80.4757 137.014 -28.7032 -87.8048 45.3058 -2.67655 -8.71594 0.581459 -0.873548 1.86271 -0.0797403 2.19931 0.397025 2.19332 -4.99003 -1.10538 3.53408 -0.0 0.0 0.0 -0.0 0.0 0.0 -3.44768e-14 -5.21132e-13 4.31852e-15 12.1667 -4.07569 -0.972846 4.863 12.7636 -45.3899 8.56407e-05 0.222816 0.0313142 4.92362e-10 -3.10679e-10 -2.80344e-10 8.54064e-10 -5.35192e-10 -4.86318e-10 4.92371e-10 -3.10679e-10 -2.80356e-10 7.73091 5.47488 0.417314 4.92362e-10 -3.1068e-10 -2.80341e-10 2.90554 0.965183 0.102902 4.92367e-10 -3.10679e-10 -2.80343e-10 10.2786 0.731801 0.0259123 4.92355e-10 -3.10677e-10 -2.80338e-10 2.22167 -0.733487 -0.20892 -3.4673e-14 -5.21131e-13 4.04868e-15 -9.04531 -3.73268 1.00902 -2.74464 14.4878 42.7026 -0.114116 -7.50867 1.02289 -4.61366e-10 -2.31034e-10 3.66512e-10 -8.07215e-10 -4.01112e-10 6.28142e-10 -4.61372e-10 -2.31033e-10 3.66526e-10 -7.73091 5.47488 -0.417314 -4.61364e-10 -2.31032e-10 3.66508e-10 -2.90554 0.965183 -0.102902 -4.61368e-10 -2.31032e-10 3.66509e-10 -10.2786 0.731801 -0.0259123 -4.6136e-10 -2.31028e-10 3.66499e-10 -2.22167 -0.733487 0.20892 -2.03217e-16 0.0 -3.88251e-19 -3.17324 -7.84189 5.99562 0.0188025 4.54024 0.132842 -1.33045 0.354282 -5.898 2.03217e-16 0.0 3.88251e-19 2.58755 -9.86976 0.373011 -0.0112258 12.3255 -0.280341 0.634854 -2.46562 -0.0176937
31.7669 80.471 137.019 -27.9839 -87.7811 44.6199 -1.79297 -17.9206 1.3455 -0.840625 3.82079 0.00357466 4.50279 0.810706 4.51097 -10.1327 -2.2385 7.2703 -0.0 0.0 0.0 -0.0 0.0 0.0 -4.78515e-14 -1.11629e-12 9.24659e-15 24.9306 -8.3016 -2.04581 20.8115 -0.273914 -90.3665 -9.64438e-05 0.448375 0.0630157 1.3083e-09 -6.71159e-10 -5.92513e-10 2.26741e-09 -1.15621e-09 -1.02787e-09 1.30831e-09 -6.71161e-10 -5.92525e-10 7.73091 5.47488 0.417314 1.3083e-09 -6.7116e-10 -5.92511e-10 2.90554 0.965183 0.102902 1.30831e-09 -6.71159e-10 -5.92513e-10 10.2786 0.731801 0.0259123 1.30829e-09 -6.71157e-10 -5.92511e-10 2.22167 -0.733487 -0.20892 -4.80528e-14 -1.11629e-12 9.00743e-15 -18.5107 -7.59888 2.07764 -18.6223 3.5613 85.7233 0.0669432 -15.4644 2.16798 -7.2586e-10 -4.86092e-10 7.79167e-10 -1.27573e-09 -8.43974e-10 1.33544e-09 -7.25873e-10 -4.8609e-10 7.79186e-10 -7.73091 5.47488 -0.417314 -7.25859e-10 -4.86088e-10 7.79166e-10 -2.90554 0.965183 -0.102902 -7.25864e-10 -4.86088e-10 7.79168e-10 -10.2786 0.731801 -0.0259123 -7.25856e-10 -4.86085e-10 7.79161e-10 -2.22167 -0.733487 0.20892 -2.03217e-16 0.0 -3.88251e-19 -2.89798 -13.8507 12.5686 -0.0031628 11.5378 0.346617 -3.18702 -3.4166 -12.2746 2.03217e-16 0.0 3.88251e-19 8.36885 -10.0735 0.409014 -0.0122299 12.7265 -0.300333 0.820877 -2.6618 -0.0300735
31.7219 80.4665 137.022 -27.5611 -87.7654 44.2368 -0.776584 -26.1296 2.12045 -0.814785 5.56646 0.0763971 6.50694 1.18409 6.58122 -14.563 -3.26569 10.6177 -0.0 0.0 0.0 -0.0 0.0 0.0 -5.69081e-14 -1.56295e-12 1.29556e-14 36.0769 -12.2128 -2.97862 22.0178 -32.5435 -118.029 -0.000473781 0.668447 0.0939482 1.93156e-09 -9.27725e-10 -8.38894e-10 3.34707e-09 -1.59812e-09 -1.45527e-09 1.93158e-09 -9.27728e-10 -8.38906e-10 7.73091 5.47488 0.417314 1.93156e-09 -9.27727e-10 -8.38893e-10 2.90554 0.965183 0.102902 1.93157e-09 -9.27725e-10 -8.38894e-10 10.2786 0.731801 0.0259123 1.93155e-09 -9.27722e-10 -8.38895e-10 2.22167 -0.733487 -0.20892 -5.71096e-14 -1.56295e-12 1.27424e-14 -26.7352 -11.184 3.07918 -22.6276 -27.6501 109.02 0.51783 -22.4961 3.29318 -9.29862e-10 -6.88888e-10 1.10166e-09 -1.63722e-09 -1.19606e-09 1.88809e-09 -9.29879e-10 -6.88885e-10 1.10168e-09 -7.73091 5.47488 -0.417314 -9.2986e-10 -6.88883e-10 1.10166e-09 -2.90554 0.965183 -0.102902 -9.29867e-10 -6.88882e-10 1.10166e-09 -10.2786 0.731801 -0.0259123 -9.29859e-10 -6.8888e-10 1.10166e-09 -2.22167 -0.733487 0.20892 -2.03217e-16 0.0 -3.88251e-19 -1.42994 -18.8059 18.8206 -0.0692083 17.7775 0.550751 -5.54924 -6.59475 -18.0511 2.03217e-16 0.0 3.88251e-19 13.5254 -10.255 0.441165 -0.0128724 13.0839 -0.318137 0.98671 -2.83678 -0.041118
31.6792 80.4633 137.028 -26.7891 -87.7287 43.4919 0.0763314 -31.8637 2.73433 -0.795666 6.78112 0.122376 7.82525 1.46321 8.03184 -17.4857 -4.07354 12.9797 -0.0 0.0 0.0 -0.0 0.0 0.0 -5.51693e-14 -1.63835e-12 1.36168e-14 43.4878 -15.3521 -3.50518 7.26714 -59.1596 -140.127 -0.000938682 0.874802 0.122955 2.07313e-09 -9.24506e-10 -9.20802e-10 3.59251e-09 -1.59224e-09 -1.59731e-09 2.07314e-09 -9.24509e-10 -9.20815e-10 7.73091 5.47488 0.417314 2.07313e-09 -9.24507e-10 -9.20802e-10 2.90554 0.965183 0.102902 2.07314e-09 -9.24506e-10 -9.20804e-10 10.2786 0.731801 0.0259123 2.07312e-09 -9.24503e-10 -9.20806e-10 2.22167 -0.733487 -0.20892 -5.53586e-14 -1.63835e-12 1.3418e-14 -32.1201 -14.0783 3.87018 -17.6511 -54.9603 119.652 1.00625 -27.2465 4.15026 -9.82631e-10 -7.6103e-10 1.19875e-09 -1.73115e-09 -1.3212e-09 2.0541e-09 -9.8265e-10 -7.61026e-10 1.19877e-09 -7.73091 5.47488 -0.417314 -9.82629e-10 -7.61024e-10 1.19875e-09 -2.90554 0.965183 -0.102902 -9.82636e-10 -7.61024e-10 1.19875e-09 -10.2786 0.731801 -0.0259123 -9.82629e-10 -7.61022e-10 1.19875e-09 -2.22167 -0.733487 0.20892 -2.03217e-16 0.0 -3.88251e-19 0.291236 -21.9253 23.4669 -0.144065 22.1233 0.705355 -7.58565 -8.65073 -22.17 2.03217e-16 0.0 3.88251e-19 17.1195 -10.3808 0.463586 -0.0131565 13.3324 -0.330325 1.10223 -2.95875 -0.0488158
31.6361 80.4601 137.033 -26.1943 -87.6957 42.9267 0.425493 -34.1472 2.96617 -0.781291 7.25285 0.130598 8.18306 1.62071 8.61474 -18.3722 -4.61811 13.9627 -0.0 0.0 0.0 -0.0 0.0 0.0 -3.52402e-14 -1.10897e-12 9.28542e-15 45.828 -17.4473 -3.42021 -9.77261 -68.5426 -158.008 -0.00158395 1.12131 0.15761 1.41058e-09 -4.68535e-10 -7.35869e-10 2.44543e-09 -8.05875e-10 -1.27636e-09 1.41059e-09 -4.68537e-10 -7.35882e-10 7.73091 5.47488 0.417314 1.41058e-09 -4.68536e-10 -7.3587e-10 2.90554 0.965183 0.102902 1.41059e-09 -4.68535e-10 -7.35871e-10 10.2786 0.731801 0.0259123 1.41057e-09 -4.68532e-10 -7.35872e-10 2.22167 -0.733487 -0.20892 -3.53944e-14 -1.10897e-12 9.08469e-15 -33.6477 -16.0193 4.3185 -12.6915 -66.1421 124.647 1.21548 -28.8265 4.46119 -8.01549e-10 -6.35021e-10 9.24879e-10 -1.41089e-09 -1.10204e-09 1.58338e-09 -8.01566e-10 -6.35017e-10 9.24904e-10 -7.73091 5.47488 -0.417314 -8.01547e-10 -6.35016e-10 9.24881e-10 -2.90554 0.965183 -0.102902 -8.01555e-10 -6.35015e-10 9.24886e-10 -10.2786 0.731801 -0.0259123 -8.01547e-10 -6.35013e-10 9.24882e-10 -2.22167 -0.733487 0.20892 -2.03217e-16 0.0 -3.88251e-19 1.12399 -23.0425 25.3693 -0.180961 23.8173 0.769644 -8.48023 -9.40872 -23.8475 2.03217e-16 0.0 3.88251e-19 18.526 -10.4285 0.472328 -0.0131822 13.428 -0.334576 1.1474 -3.00634 -0.05183
31.5947 80.4573 137.039 -25.6437 -87.6591 42.4026 0.33938 -33.9692 2.87323 -0.769332 7.1939 0.111698 7.86339 1.69251 8.57755 -17.8411 -4.98515 13.9571 -0.0 0.0 0.0 -0.0 0.0 0.0 -2.46444e-15 -1.51639e-13 1.42255e-15 44.5977 -18.7976 -2.88058 -7.21389 -67.6074 -155.416 -0.0025329 1.39367 0.195907 1.7984e-10 3.06589e-10 -3.62075e-10 3.14395e-10 5.30671e-10 -6.2772e-10 1.79849e-10 3.06589e-10 -3.6209e-10 7.73091 5.47488 0.417314 1.7984e-10 3.06589e-10 -3.62078e-10 2.90554 0.965183 0.102902 1.79848e-10 3.0659e-10 -3.62077e-10 10.2786 0.731801 0.0259123 1.79837e-10 3.06591e-10 -3.62078e-10 2.22167 -0.733487 -0.20892 -2.56746e-15 -1.51639e-13 1.20824e-15 -32.4553 -17.2824 4.51189 -13.5476 -64.8574 123.754 1.14495 -28.1482 4.33311 -4.54486e-10 -3.682e-10 3.88678e-10 -7.96652e-10 -6.38228e-10 6.62396e-10 -4.54496e-10 -3.68198e-10 3.887e-10 -7.73091 5.47488 -0.417314 -4.54483e-10 -3.68197e-10 3.88678e-10 -2.90554 0.965183 -0.102902 -4.5449e-10 -3.68196e-10 3.88684e-10 -10.2786 0.731801 -0.0259123 -4.54482e-10 -3.68194e-10 3.88678e-10 -2.22167 -0.733487 0.20892 -2.03217e-16 0.0 -3.88251e-19 1.03267 -22.8975 25.1817 -0.177718 23.6173 0.762739 -8.40331 -9.32259 -23.746 2.03217e-16 0.0 3.88251e-19 18.3699 -10.4205 0.47129 -0.0130776 13.4146 -0.333142 1.14234 -3.00081 -0.0514975
31.5539 80.4548 137.046 -25.1089 -87.6187 41.8916 0.0824324 -32.8017 2.6499 -0.758239 6.9219 0.0814428 7.31883 1.72088 8.2914 -16.825 -5.26474 13.5401 -0.0 0.0 0.0 -0.0 0.0 0.0 3.05268e-14 8.40824e-13 -6.6919e-15 41.9476 -19.8064 -2.15235 2.8798 -62.4785 -144.923 -0.00329343 1.5814 0.222312 -1.07058e-09 1.06689e-09 2.87313e-11 -1.85086e-09 1.84154e-09 5.0428e-11 -1.07058e-09 1.06689e-09 2.87153e-11 7.73091 5.47488 0.417314 -1.07058e-09 1.06689e-09 2.87261e-11 2.90554 0.965183 0.102902 -1.07057e-09 1.06689e-09 2.87286e-11 10.2786 0.731801 0.0259123 -1.07058e-09 1.06689e-09 2.87294e-11 2.22167 -0.733487 -0.20892 3.04726e-14 8.40824e-13 -6.92446e-15 -30.1825 -18.2658 4.63026 -16.5452 -58.5662 120.67 0.973141 -26.5641 4.03613 -7.64277e-11 -6.9432e-11 -1.63831e-10 -1.28238e-10 -1.19069e-10 -2.85987e-10 -7.64322e-11 -6.94314e-11 -1.63813e-10 -7.73091 5.47488 -0.417314 -7.64254e-11 -6.94315e-11 -1.63833e-10 -2.90554 0.965183 -0.102902 -7.64314e-11 -6.94308e-11 -1.63827e-10 -10.2786 0.731801 -0.0259123 -7.64234e-11 -6.94283e-11 -1.63835e-10 -2.22167 -0.733487 0.20892 -2.03217e-16 0.0 -3.88251e-19 0.570941 -22.2475 24.1552 -0.158297 22.6614 0.727528 -7.93622 -8.90242 -22.9282 2.03217e-16 0.0 3.88251e-19 17.5887 -10.3904 0.466364 -0.0129175 13.358 -0.329447 1.11716 -2.97429 -0.0498176
31.514 80.4525 137.054 -24.6 -87.5782 41.4039 -0.0831502 -32.1167 2.49023 -0.746162 6.75446 0.0555616 6.99945 1.74768 8.12751 -16.2397 -5.54219 13.2908 -0.0 0.0 0.0 -0.0 0.0 0.0 5.11024e-14 1.47562e-12 -1.1778e-14 40.0133 -20.879 -1.50882 7.27079 -59.1587 -140.121 -0.00303954 1.57403 0.221271 -1.79217e-09 1.47839e-09 2.64702e-10 -3.10061e-09 2.55089e-09 4.59909e-10 -1.79217e-09 1.4784e-09 2.64686e-10 7.73091 5.47488 0.417314 -1.79217e-09 1.4784e-09 2.64695e-10 2.90554 0.965183 0.102902 -1.79217e-09 1.4784e-09 2.64699e-10 10.2786 0.731801 0.0259123 -1.79217e-09 1.4784e-09 2.64702e-10 2.22167 -0.733487 -0.20892 5.10763e-14 1.47562e-12 -1.20265e-14 -28.4442 -19.3658 4.86318 -17.9484 -54.776 118.99 0.864696 -25.428 3.83124 1.97636e-10 1.52419e-10 -4.86625e-10 3.54555e-10 2.66114e-10 -8.38908e-10 1.97636e-10 1.52418e-10 -4.86609e-10 -7.73091 5.47488 -0.417314 1.97639e-10 1.52417e-10 -4.86628e-10 -2.90554 0.965183 -0.102902 1.97634e-10 1.52418e-10 -4.86622e-10 -10.2786 0.731801 -0.0259123 1.97641e-10 1.52421e-10 -4.86631e-10 -2.22167 -0.733487 0.20892 -2.03217e-16 0.0 -3.88251e-19 0.305225 -21.8409 23.5458 -0.147245 22.0875 0.707204 -7.66999 -8.65218 -22.4584 2.03217e-16 0.0 3.88251e-19 17.1198 -10.372 0.463446 -0.0127785 13.3243 -0.326911 1.10198 -2.95892 -0.0487894
